<svg xmlns="http://www.w3.org/2000/svg" width="1200" height="360" viewBox="0 0 1200 360">
  <defs>
    <linearGradient id="bg" x1="0" y1="0" x2="1" y2="1">
      <stop offset="0%" stop-color="#FFF1F6"/>
      <stop offset="55%" stop-color="#FFFBE6"/>
      <stop offset="100%" stop-color="#E8F7FF"/>
    </linearGradient>
    <radialGradient id="sun" cx="0.18" cy="0.22" r="0.55">
      <stop offset="0%" stop-color="#FFD93D" stop-opacity="0.85"/>
      <stop offset="100%" stop-color="#FFD93D" stop-opacity="0"/>
    </radialGradient>
  </defs>

  <rect width="1200" height="360" rx="28" fill="url(#bg)"/>
  <rect width="1200" height="360" rx="28" fill="url(#sun)"/>

  <g opacity="0.35">
    <circle cx="140" cy="80" r="36" fill="#FF6B6B"/>
    <circle cx="260" cy="120" r="22" fill="#4D96FF"/>
    <circle cx="430" cy="60" r="18" fill="#6BCB77"/>
    <circle cx="560" cy="120" r="30" fill="#FFD93D"/>
    <circle cx="960" cy="90" r="26" fill="#FF9F1C"/>
    <circle cx="1080" cy="140" r="18" fill="#6BCB77"/>
  </g>

  <g transform="translate(170 220)">
    <circle cx="0" cy="-36" r="26" fill="#FF6B6B"/>
    <circle cx="30" cy="-10" r="26" fill="#FF9F1C"/>
    <circle cx="18" cy="24" r="26" fill="#FFD93D"/>
    <circle cx="-18" cy="24" r="26" fill="#6BCB77"/>
    <circle cx="-30" cy="-10" r="26" fill="#4D96FF"/>
    <circle cx="0" cy="0" r="18" fill="#FFFFFF"/>
  </g>

  <g transform="translate(360 250) scale(0.8)">
    <circle cx="0" cy="-30" r="20" fill="#FF9F1C"/>
    <circle cx="24" cy="-6" r="20" fill="#FFD93D"/>
    <circle cx="15" cy="22" r="20" fill="#6BCB77"/>
    <circle cx="-15" cy="22" r="20" fill="#4D96FF"/>
    <circle cx="-24" cy="-6" r="20" fill="#FF6B6B"/>
    <circle cx="0" cy="0" r="14" fill="#FFFFFF"/>
  </g>

  <g transform="translate(790 90)" opacity="0.5" fill="#FF6B6B">
    <circle cx="0" cy="0" r="4"/>
    <circle cx="-8" cy="-10" r="3"/>
    <circle cx="8" cy="-10" r="3"/>
    <circle cx="-4" cy="-2" r="3"/>
    <circle cx="4" cy="-2" r="3"/>
  </g>

  <g transform="translate(940 140)">
    <ellipse cx="90" cy="140" rx="80" ry="58" fill="#FFB4A2"/>
    <circle cx="70" cy="85" r="38" fill="#FFB4A2"/>
    <polygon points="40,70 55,40 70,75" fill="#FFB4A2"/>
    <polygon points="70,75 85,40 102,70" fill="#FFB4A2"/>
    <circle cx="60" cy="88" r="6" fill="#2A2A2A"/>
    <circle cx="86" cy="88" r="6" fill="#2A2A2A"/>
    <circle cx="73" cy="102" r="4" fill="#2A2A2A"/>
    <path d="M60 106 C66 114 80 114 86 106" fill="none" stroke="#2A2A2A" stroke-width="3" stroke-linecap="round"/>
    <path d="M40 98 L12 92" stroke="#2A2A2A" stroke-width="3" stroke-linecap="round"/>
    <path d="M40 106 L10 108" stroke="#2A2A2A" stroke-width="3" stroke-linecap="round"/>
    <path d="M106 98 L134 92" stroke="#2A2A2A" stroke-width="3" stroke-linecap="round"/>
    <path d="M106 106 L136 108" stroke="#2A2A2A" stroke-width="3" stroke-linecap="round"/>
    <path d="M120 160 C165 145 175 210 120 210" fill="none" stroke="#FFB4A2" stroke-width="16" stroke-linecap="round"/>
  </g>

  <g>
    <text x="80" y="150" font-family="Verdana, Trebuchet MS, sans-serif" font-size="48" font-weight="700" fill="#2A2A2A">Lili Smile</text>
    <text x="80" y="195" font-family="Verdana, Trebuchet MS, sans-serif" font-size="22" font-weight="600" fill="#4D96FF">PhD @ SCAU • Flowers & Cats • Dopamine Colors</text>
  </g>
</svg>
